<svg width="16" height="13" viewBox="0 0 16 13" fill="none" xmlns="http://www.w3.org/2000/svg">
<path d="M13.5495 1.03335C12.4933 0.546197 11.3937 0.191907 10.2507 0C10.106 0.265718 9.94681 0.605246 9.83106 0.885725C8.61571 0.693818 7.38588 0.693818 6.17053 0.885725C6.04031 0.575722 5.89563 0.28048 5.73647 0C4.59346 0.191907 3.47939 0.546197 2.43765 1.04811C0.354186 4.22196 -0.210086 7.30724 0.0648155 10.363C1.29464 11.293 2.65468 12.0016 4.116 12.4444C4.44878 11.9868 4.73815 11.5144 4.98411 11.0125C4.50665 10.8354 4.05813 10.6139 3.62407 10.3482C3.73982 10.2597 3.8411 10.1711 3.95685 10.0825C6.51777 11.3225 9.49829 11.3225 12.0592 10.0825C12.175 10.1711 12.2762 10.2597 12.392 10.3482C11.9579 10.6139 11.4949 10.8354 11.0175 11.0125C11.2634 11.5144 11.5528 11.9868 11.8856 12.4444C13.3469 11.9868 14.7214 11.293 15.9368 10.363C16.2551 6.82009 15.358 3.74957 13.5495 1.03335ZM5.33136 8.47344C4.53559 8.47344 3.89897 7.73533 3.89897 6.83485C3.89897 5.93436 4.53559 5.18149 5.33136 5.18149C6.14159 5.18149 6.77821 5.9196 6.77821 6.83485C6.76374 7.73533 6.14159 8.47344 5.33136 8.47344ZM10.6558 8.47344C9.86 8.47344 9.22339 7.73533 9.22339 6.83485C9.22339 5.93436 9.86 5.18149 10.6558 5.18149C11.466 5.18149 12.1026 5.9196 12.0882 6.83485C12.0737 7.7501 11.4515 8.47344 10.6558 8.47344Z" fill="white"/>
</svg>
