<svg width="14" height="14" viewBox="0 0 14 14" fill="none" xmlns="http://www.w3.org/2000/svg">
<path d="M7 1.26233C8.869 1.26233 9.09067 1.26933 9.82917 1.30317C11.7273 1.3895 12.6117 2.289 12.6992 4.172C12.7318 4.9105 12.7388 5.131 12.7388 7C12.7388 8.869 12.7318 9.09067 12.6992 9.828C12.6117 11.7098 11.7285 12.6117 9.82917 12.698C9.09067 12.7307 8.87017 12.7388 7 12.7388C5.131 12.7388 4.90933 12.7318 4.172 12.698C2.27033 12.6105 1.3895 11.7075 1.302 9.828C1.26933 9.09067 1.26117 8.869 1.26117 7C1.26117 5.131 1.26933 4.90933 1.302 4.172C1.38833 2.28783 2.27267 1.38833 4.172 1.302C4.90933 1.26817 5.131 1.26233 7 1.26233ZM7 0C5.09833 0 4.8615 0.00816688 4.11367 0.0431669C1.57033 0.159834 0.158666 1.57033 0.0419997 4.11367C0.0081664 4.8615 0 5.0995 0 7C0 8.90167 0.0081664 9.13967 0.0419997 9.88633C0.158666 12.4285 1.57033 13.8413 4.11367 13.958C4.8615 13.9918 5.09833 14 7 14C8.90167 14 9.13967 13.9918 9.8875 13.958C12.4262 13.8413 13.8437 12.4308 13.958 9.88633C13.9918 9.13967 14 8.90167 14 7C14 5.0995 13.9918 4.8615 13.958 4.11367C13.8437 1.57383 12.4308 0.158667 9.8875 0.0431669C9.13967 0.00816688 8.90167 0 7 0ZM7 3.4055C5.0155 3.4055 3.4055 5.01433 3.4055 7C3.4055 8.98567 5.0155 10.5945 7 10.5945C8.9845 10.5945 10.5945 8.98567 10.5945 7C10.5945 5.0155 8.9845 3.4055 7 3.4055ZM7 9.33333C5.71083 9.33333 4.66667 8.28917 4.66667 7C4.66667 5.712 5.71083 4.66667 7 4.66667C8.288 4.66667 9.3345 5.71083 9.3345 7C9.3345 8.28917 8.288 9.33333 7 9.33333ZM10.7357 2.42433C10.2725 2.42433 9.89567 2.8 9.89567 3.26433C9.89567 3.7275 10.2713 4.10433 10.7357 4.10433C11.2 4.10433 11.5768 3.72867 11.5768 3.26433C11.5768 2.8 11.2012 2.42433 10.7357 2.42433Z" fill="white"/>
</svg>
