<svg width="14" height="12" viewBox="0 0 14 12" fill="none" xmlns="http://www.w3.org/2000/svg">
<path d="M14 1.42049C13.4849 1.66148 12.9313 1.82427 12.3504 1.89751C12.9433 1.5226 13.3988 0.928933 13.6132 0.221492C13.0582 0.568715 12.4435 0.82077 11.7893 0.956618C11.2654 0.367822 10.5189 0 9.69275 0C8.10655 0 6.82044 1.35633 6.82044 3.02933C6.82044 3.26677 6.84585 3.498 6.89485 3.71972C4.50771 3.59339 2.39132 2.3873 0.974658 0.554465C0.727418 1.00188 0.585737 1.52223 0.585737 2.07744C0.585737 3.12848 1.09282 4.05572 1.86352 4.59896C1.3927 4.58323 0.949808 4.44694 0.562567 4.22006C0.56224 4.23269 0.562241 4.24539 0.562241 4.25816C0.562241 5.7259 1.55232 6.95023 2.8663 7.22872C2.62528 7.29797 2.37153 7.33496 2.10959 7.33496C1.92451 7.33496 1.74461 7.31591 1.56919 7.28062C1.93473 8.48413 2.99545 9.35998 4.25237 9.38434C3.26936 10.1969 2.03091 10.6812 0.685162 10.6812C0.453321 10.6812 0.224701 10.6668 0 10.6389C1.27113 11.4985 2.78089 12 4.40294 12C9.68606 12 12.5752 7.38391 12.5752 3.38054C12.5752 3.24919 12.5724 3.11859 12.5668 2.98857C13.128 2.56154 13.6149 2.02804 14 1.42049H14Z" fill="white"/>
</svg>
