<svg width="56" height="56" viewBox="0 0 56 56" fill="none" xmlns="http://www.w3.org/2000/svg">
<path d="M9.33334 28.0002C9.33334 17.6878 17.6877 9.3335 28 9.3335C38.3124 9.3335 46.6667 17.6878 46.6667 28.0002C46.6667 38.3125 38.3124 46.6668 28 46.6668C17.6877 46.6451 9.33334 38.2908 9.33334 28.0002Z" fill="#00A6F1"/>
<path opacity="0.5" d="M0.5 28C0.5 12.8076 12.8076 0.5 28 0.5C43.1924 0.5 55.5 12.8076 55.5 28C55.5 43.192 43.193 55.4994 28.0011 55.5C12.8073 55.4679 0.5 43.1592 0.5 28Z" stroke="#00A6F1"/>
<path d="M35.2837 21.1898C33.8974 20.5504 32.4542 20.0854 30.954 19.8335C30.7641 20.1823 30.5552 20.6279 30.4033 20.996C28.8081 20.7441 27.194 20.7441 25.5988 20.996C25.4279 20.5891 25.238 20.2016 25.0291 19.8335C23.5289 20.0854 22.0667 20.5504 20.6994 21.2091C17.9649 25.3748 17.2243 29.4242 17.5851 33.4349C19.1992 34.6556 20.9843 35.5856 22.9022 36.1668C23.339 35.5662 23.7188 34.9462 24.0416 34.2874C23.415 34.0549 22.8263 33.7643 22.2566 33.4155C22.4085 33.2993 22.5414 33.183 22.6934 33.0668C26.0546 34.6943 29.9665 34.6943 33.3277 33.0668C33.4796 33.183 33.6126 33.2993 33.7645 33.4155C33.1948 33.7643 32.5871 34.0549 31.9604 34.2874C32.2833 34.9462 32.6631 35.5662 33.0998 36.1668C35.0178 35.5662 36.8219 34.6556 38.417 33.4349C38.8348 28.7849 37.6574 24.7548 35.2837 21.1898ZM24.4974 30.9549C23.453 30.9549 22.6174 29.9861 22.6174 28.8042C22.6174 27.6223 23.453 26.6342 24.4974 26.6342C25.5608 26.6342 26.3964 27.603 26.3964 28.8042C26.3774 29.9861 25.5608 30.9549 24.4974 30.9549ZM31.4857 30.9549C30.4412 30.9549 29.6057 29.9861 29.6057 28.8042C29.6057 27.6223 30.4412 26.6342 31.4857 26.6342C32.5491 26.6342 33.3847 27.603 33.3657 28.8042C33.3467 30.0055 32.5301 30.9549 31.4857 30.9549Z" fill="white"/>
</svg>
