<svg width="56" height="56" viewBox="0 0 56 56" fill="none" xmlns="http://www.w3.org/2000/svg">
<path d="M9.33331 28.0002C9.33331 17.6878 17.6876 9.3335 28 9.3335C38.3123 9.3335 46.6666 17.6878 46.6666 28.0002C46.6666 38.3125 38.3123 46.6668 28 46.6668C17.6876 46.6451 9.33331 38.2908 9.33331 28.0002Z" fill="#00A6F1"/>
<path d="M28.5 21.5328C30.7695 21.5328 31.0387 21.5413 31.9354 21.5824C34.2403 21.6873 35.3142 22.7795 35.4204 25.066C35.4601 25.9627 35.4686 26.2305 35.4686 28.5C35.4686 30.7695 35.4601 31.0387 35.4204 31.934C35.3142 34.2191 34.2417 35.3142 31.9354 35.419C31.0387 35.4587 30.7709 35.4686 28.5 35.4686C26.2305 35.4686 25.9613 35.4601 25.066 35.419C22.7568 35.3128 21.6873 34.2162 21.581 31.934C21.5413 31.0387 21.5314 30.7695 21.5314 28.5C21.5314 26.2305 21.5413 25.9613 21.581 25.066C21.6858 22.7781 22.7597 21.6858 25.066 21.581C25.9613 21.5399 26.2305 21.5328 28.5 21.5328ZM28.5 20C26.1908 20 25.9032 20.0099 24.9952 20.0524C21.9068 20.1941 20.1927 21.9068 20.051 24.9952C20.0099 25.9032 20 26.1922 20 28.5C20 30.8092 20.0099 31.0982 20.051 32.0048C20.1927 35.0917 21.9068 36.8073 24.9952 36.949C25.9032 36.9901 26.1908 37 28.5 37C30.8092 37 31.0982 36.9901 32.0063 36.949C35.0889 36.8073 36.8102 35.0946 36.949 32.0048C36.9901 31.0982 37 30.8092 37 28.5C37 26.1922 36.9901 25.9032 36.949 24.9952C36.8102 21.9111 35.0946 20.1927 32.0063 20.0524C31.0982 20.0099 30.8092 20 28.5 20ZM28.5 24.1352C26.0903 24.1352 24.1352 26.0888 24.1352 28.5C24.1352 30.9112 26.0903 32.8647 28.5 32.8647C30.9097 32.8647 32.8647 30.9112 32.8647 28.5C32.8647 26.0903 30.9097 24.1352 28.5 24.1352ZM28.5 31.3333C26.9346 31.3333 25.6667 30.0654 25.6667 28.5C25.6667 26.936 26.9346 25.6667 28.5 25.6667C30.064 25.6667 31.3348 26.9346 31.3348 28.5C31.3348 30.0654 30.064 31.3333 28.5 31.3333ZM33.0362 22.9438C32.4737 22.9438 32.0162 23.4 32.0162 23.9638C32.0162 24.5263 32.4723 24.9838 33.0362 24.9838C33.6 24.9838 34.0576 24.5277 34.0576 23.9638C34.0576 23.4 33.6014 22.9438 33.0362 22.9438Z" fill="white"/>
<path opacity="0.5" d="M0.5 28C0.5 12.8076 12.8076 0.5 28 0.5C43.1924 0.5 55.5 12.8076 55.5 28C55.5 43.192 43.193 55.4994 28.0011 55.5C12.8073 55.4679 0.5 43.1592 0.5 28Z" stroke="#00A6F1"/>
</svg>
