<svg width="56" height="56" viewBox="0 0 56 56" fill="none" xmlns="http://www.w3.org/2000/svg">
<path d="M9.33337 28.0002C9.33337 17.6878 17.6877 9.3335 28 9.3335C38.3124 9.3335 46.6667 17.6878 46.6667 28.0002C46.6667 38.3125 38.3124 46.6668 28 46.6668C17.6877 46.6451 9.33337 38.2908 9.33337 28.0002Z" fill="#00A6F1"/>
<path opacity="0.5" d="M0.5 28C0.5 12.8076 12.8076 0.5 28 0.5C43.1924 0.5 55.5 12.8076 55.5 28C55.5 43.192 43.193 55.4994 28.0011 55.5C12.8073 55.4679 0.5 43.1592 0.5 28Z" stroke="#00A6F1"/>
<path d="M38 21.1307C37.2642 21.4922 36.4733 21.7364 35.6434 21.8463C36.4905 21.2839 37.1412 20.3934 37.4475 19.3322C36.6546 19.8531 35.7765 20.2312 34.8418 20.4349C34.0934 19.5517 33.027 19 31.8468 19C29.5808 19 27.7435 21.0345 27.7435 23.544C27.7435 23.9001 27.7798 24.247 27.8498 24.5796C24.4396 24.3901 21.4162 22.581 19.3924 19.8317C19.0392 20.5028 18.8368 21.2833 18.8368 22.1162C18.8368 23.6927 19.5612 25.0836 20.6622 25.8984C19.9896 25.8749 19.3569 25.6704 18.8037 25.3301C18.8032 25.349 18.8032 25.3681 18.8032 25.3872C18.8032 27.5889 20.2176 29.4253 22.0947 29.8431C21.7504 29.947 21.3879 30.0024 21.0137 30.0024C20.7493 30.0024 20.4923 29.9739 20.2417 29.9209C20.7639 31.7262 22.2792 33.04 24.0748 33.0765C22.6705 34.2954 20.9013 35.0219 18.9788 35.0219C18.6476 35.0219 18.321 35.0003 18 34.9583C19.8159 36.2477 21.9727 37 24.2899 37C31.8372 37 35.9645 30.0759 35.9645 24.0708C35.9645 23.8738 35.9605 23.6779 35.9526 23.4829C36.7542 22.8423 37.4498 22.0421 37.9999 21.1307H38Z" fill="white"/>
</svg>
