<svg width="8" height="24" viewBox="0 0 8 24" fill="none" xmlns="http://www.w3.org/2000/svg">
<path d="M4.5 1C4.5 0.723858 4.27614 0.5 4 0.5C3.72386 0.5 3.5 0.723858 3.5 1L4.5 1ZM3.64645 23.3536C3.84171 23.5488 4.15829 23.5488 4.35355 23.3536L7.53553 20.1716C7.7308 19.9763 7.7308 19.6597 7.53553 19.4645C7.34027 19.2692 7.02369 19.2692 6.82843 19.4645L4 22.2929L1.17157 19.4645C0.976312 19.2692 0.659729 19.2692 0.464467 19.4645C0.269205 19.6597 0.269205 19.9763 0.464467 20.1716L3.64645 23.3536ZM3.5 1L3.5 23L4.5 23L4.5 1L3.5 1Z" fill="white"/>
</svg>
