<svg width="73" height="73" viewBox="0 0 73 73" fill="none" xmlns="http://www.w3.org/2000/svg">
<path d="M37.5 26C37.5 25.7239 37.2761 25.5 37 25.5C36.7239 25.5 36.5 25.7239 36.5 26L37.5 26ZM36.6464 48.3536C36.8417 48.5488 37.1583 48.5488 37.3536 48.3536L40.5355 45.1716C40.7308 44.9763 40.7308 44.6597 40.5355 44.4645C40.3403 44.2692 40.0237 44.2692 39.8284 44.4645L37 47.2929L34.1716 44.4645C33.9763 44.2692 33.6597 44.2692 33.4645 44.4645C33.2692 44.6597 33.2692 44.9763 33.4645 45.1716L36.6464 48.3536ZM36.5 26L36.5 48L37.5 48L37.5 26L36.5 26Z" fill="white"/>
<rect x="0.5" y="0.5" width="72" height="72" rx="36" stroke="#66C8FF"/>
</svg>
