<svg width="96" height="96" viewBox="0 0 96 96" fill="none" xmlns="http://www.w3.org/2000/svg">
<g clip-path="url(#clip0_115_839)">
<path d="M95.856 31.2384C95.6832 30.72 95.328 30.2496 94.8768 29.9424C94.6464 29.7792 94.3872 29.6544 94.1088 29.5776C93.9072 29.52 93.744 29.5008 93.6384 29.4816L93.5808 29.472C93.1776 29.4144 92.7552 29.3568 92.2848 29.3088C91.4304 29.2128 90.5568 29.1552 89.6928 29.1168C89.088 29.0976 88.464 29.0784 87.8592 29.0784C87.6096 29.0784 87.3696 29.0784 87.12 29.088C86.6784 29.0976 86.2368 29.1072 85.8144 29.1264L85.5264 29.1456C85.2672 29.1552 85.0464 29.1936 84.8448 29.2608C84.3744 29.3568 83.4144 29.616 82.4352 30.3552C82.3776 30.2112 82.32 30.0672 82.2336 29.9328C81.792 29.1744 80.9856 28.6944 80.112 28.6656C77.52 28.512 74.9088 28.3872 72.48 28.2816C70.0608 28.1856 67.4592 28.08 64.8288 28.0032C63.4272 27.9648 62.0448 27.9264 60.9888 27.9072L58.9728 27.8784C58.9248 27.8784 58.8768 27.8784 58.8288 27.8784C58.6944 27.8784 58.4832 27.888 58.272 27.936C58.1856 27.9552 58.0992 27.9744 58.0128 28.0032C57.6288 27.2256 56.88 26.6592 55.968 26.544C54.2688 26.304 52.56 26.16 51.1008 26.0544C49.5552 25.9488 47.9616 25.8912 46.224 25.872C45.8688 25.8624 45.5136 25.8624 45.1488 25.8624C42.3744 25.8624 39.5328 25.9872 36.4512 26.256L35.2416 26.3808L34.656 26.448C34.3584 26.4768 34.0032 26.5248 33.648 26.6592C32.8896 26.9376 32.2464 27.5136 31.872 28.224C31.68 28.5792 31.5648 28.9632 31.5168 29.3568C31.488 29.5488 31.4784 29.7504 31.4976 29.9712C31.152 29.6832 30.8064 29.4528 30.48 29.2704C30.2304 29.0496 29.9616 28.8768 29.6736 28.752C29.1744 28.5312 28.6752 28.4832 28.3392 28.4832H28.32C28.176 28.4832 28.032 28.4832 27.8976 28.4832C27.7824 28.4832 27.6672 28.4832 27.5616 28.4832C26.592 28.4928 25.584 28.5408 24.4704 28.6464C23.3472 28.7616 22.3488 28.9056 21.3984 29.088L21.3024 29.1072C21.0816 29.1456 20.8704 29.1936 20.6496 29.2416C20.3136 29.3088 19.8336 29.4624 19.3824 29.7888C18.6048 30.3552 18.1248 31.2384 18.0864 32.1696C17.9712 33.1008 17.8656 34.1088 17.7696 35.0688C16.6368 33.4848 15.6384 32.112 15.0144 31.2576C13.7856 29.5584 12.72 28.8 12.0192 28.464C11.8848 28.3872 11.76 28.3296 11.6256 28.272C11.3088 28.1472 10.9824 28.0704 10.6368 28.0512C10.56 28.0416 10.4832 28.0416 10.4064 28.0416C10.3008 28.0416 10.2048 28.0416 10.0992 28.0512C10.0512 28.0512 10.0032 28.0608 9.936 28.0608C9.1584 28.0896 8.4 28.1376 7.6608 28.1952C5.9712 28.3392 4.4736 28.56 3.072 28.8672L2.9376 28.896C2.7936 28.9248 2.6208 28.9632 2.4096 29.0304C2.4 29.0304 2.3904 29.04 2.3808 29.04C2.0256 29.1648 1.728 29.3184 1.4592 29.5008C0.892798 29.8944 0.451198 30.4704 0.211198 31.1136C-0.0384018 31.7664 -0.0960018 32.496 0.0671982 33.168C0.0959982 33.3024 0.134398 33.4176 0.163198 33.5328L0.403198 34.3296L1.68 38.5536C2.496 41.2224 3.3792 44.0928 4.3008 46.992L5.6544 51.1968C5.6544 51.1968 6.2112 52.8672 6.2208 52.9056C6.2688 53.0496 6.3264 53.232 6.4224 53.4432C6.48 53.568 6.5568 53.7024 6.6336 53.8272C7.3056 55.2 8.8128 56.1408 9.5136 56.496V56.5056C9.9744 56.784 10.4928 56.928 11.0304 56.928C11.376 56.928 11.7216 56.8704 12.0384 56.7456C15.264 55.5552 17.3952 54.8448 18.6048 54.4704C19.7184 54.1248 20.4768 53.1648 20.6304 52.08C20.6688 52.1184 20.7072 52.1472 20.736 52.176C20.8416 52.272 20.9472 52.3584 21.072 52.4448C20.9376 52.6752 20.832 52.9344 20.7552 53.2032C20.3136 54.7392 19.296 59.8272 23.7312 63.3888L23.3568 66.1728C23.1264 67.9104 24.288 69.5136 26.016 69.8208C26.8032 69.9648 28.0992 70.128 29.7888 70.128C29.9808 70.128 30.1728 70.128 30.3744 70.1184C30.6144 70.1088 30.864 70.0992 31.1232 70.0896C32.688 70.0032 33.984 68.8224 34.1856 67.2576L34.5792 64.3296C34.6752 64.2816 34.7808 64.224 34.8864 64.1664C34.896 64.9632 34.9248 65.5872 34.944 66.0096C35.0304 67.8336 36.528 69.2928 38.352 69.3408C39.1584 69.36 40.032 69.3696 40.944 69.3696C42 69.3696 43.1328 69.3504 44.3136 69.3312L44.4672 69.3216C45.3984 69.3024 46.368 69.2736 47.4528 69.2256C49.3344 69.1488 50.8896 69.0624 51.8592 69.0048C53.6352 68.8992 54.9984 67.3632 54.8928 65.5872C54.8352 64.656 54.7776 63.6192 54.72 62.5632C54.6816 61.872 54.4224 61.2384 54.0288 60.7296C54.048 60.7296 54.0768 60.7296 54.096 60.7296H54.1824C54.672 60.7104 55.3536 60.6912 56.1696 60.6528C56.3328 62.5536 56.4864 64.272 56.6304 65.7696C56.7936 67.488 58.2816 68.8416 60.0096 68.8416H60.096C60.1344 68.8416 60.1728 68.8416 60.2304 68.832C61.392 68.7552 63.024 68.6496 64.5792 68.5536C65.52 68.496 66.3936 68.0448 66.9984 67.3152C67.5936 66.5952 67.872 65.6352 67.7472 64.7136C67.5264 63.0432 67.3152 61.3248 67.152 59.8944C67.4016 59.8656 67.6416 59.8464 67.8816 59.8176C68.3136 62.496 68.7552 64.9056 69.1872 66.9888C69.5328 68.6208 70.9824 69.792 72.6528 69.792H72.7392C72.8544 69.792 72.9792 69.7824 73.0944 69.7632C74.1792 69.6288 75.504 69.4656 76.9248 69.2928C77.904 69.168 78.7968 68.64 79.3728 67.8336C79.9488 67.0272 80.16 66.0192 79.9584 65.0496C78.9504 60.2304 78.0192 55.344 77.5584 52.8576C78.1824 52.8192 80.1696 52.5408 81.4944 50.5344C81.552 50.4576 81.6096 50.3712 81.6576 50.2848C81.7632 50.1024 81.8688 49.9008 81.9936 49.6896C81.888 50.544 81.792 51.3792 81.696 52.1856C81.5616 53.3472 82.2816 54.4608 83.3952 54.816C85.0464 55.3536 86.7744 55.9296 88.5216 56.5344C88.7808 56.6304 89.0592 56.6688 89.3376 56.6688C89.4912 56.6688 89.6448 56.6496 89.7984 56.6208C90.3552 56.5344 92.688 56.0928 93.7248 54.4896C94.1184 54.0576 94.3584 53.52 94.3968 52.9536L94.512 51.7152C94.6944 49.5744 94.8672 47.4048 95.04 45.3024C95.136 44.1312 95.2224 42.9504 95.3184 41.76L95.6736 36.7968L95.9328 33.0528L95.9904 32.1984C95.9904 32.1696 95.9904 32.1504 95.9904 32.1312C95.9904 32.1312 95.9904 32.0064 95.9904 31.9872C95.9904 31.7664 95.9424 31.4976 95.856 31.2384ZM60.72 51.6192C59.7216 51.696 58.8 51.7632 58.032 51.8208C56.1408 51.9552 54.6624 52.0416 53.7408 52.0896C53.5584 52.0992 53.376 52.128 53.1936 52.1664C52.6176 51.6576 51.8496 51.3504 51.0432 51.3504H50.9664C49.5648 51.3888 48.0576 51.4272 46.56 51.456C45.7248 51.4752 44.9088 51.4944 44.112 51.5136C41.8752 51.5616 39.9168 51.6096 38.8512 51.6288C38.0448 51.648 37.2864 51.936 36.6912 52.4352C36.5568 52.4064 36.4128 52.3776 36.2688 52.368C35.5392 52.2912 34.368 52.1568 32.976 51.984C32.832 51.9648 32.688 51.9552 32.544 51.9552H32.4672C32.2944 51.9552 32.1216 51.9744 31.9488 52.0032C33.7248 51.744 35.28 51.4848 36.3552 51.2928C37.2576 51.1392 38.0352 50.592 38.4768 49.7856C38.5344 49.6896 38.5824 49.5936 38.6208 49.488C38.6496 49.488 38.6688 49.488 38.6976 49.488C38.784 49.488 38.8704 49.4784 38.9568 49.4784C40.7136 49.344 43.5072 49.152 46.7712 48.9984C49.7184 48.864 52.4832 48.7968 54.9888 48.7968C55.2576 48.7968 55.5168 48.7968 55.8048 48.7968C57.024 48.7968 58.0416 47.8464 58.128 46.6368C58.1664 46.0992 58.224 45.3216 58.2816 44.3712C58.2912 44.2944 58.2912 44.208 58.3008 44.1216L58.3104 43.9776C58.32 43.8528 58.32 43.728 58.3008 43.5936C58.272 42.3456 57.9168 41.4144 57.5712 40.7904C57.4656 40.368 57.2544 39.984 56.9568 39.6768L60.9888 39.9552C60.768 42.6816 60.4128 46.992 60.1728 49.9008C60.1152 50.5536 60.336 51.1584 60.72 51.6192Z" fill="url(#paint0_linear_115_839)"/>
<path d="M78.5568 65.3856C77.5488 60.5664 76.6176 55.6608 76.1472 53.1648C75.9744 52.2144 75.1488 51.552 74.1888 51.5712C74.1024 51.5712 74.016 51.5808 73.9296 51.5904C72.7968 51.7728 71.5584 51.9456 70.2432 52.1088C69.7824 52.1664 69.36 52.3872 69.0528 52.7232C68.7552 52.5024 68.3904 52.3776 67.9968 52.3872C67.9488 52.3872 67.9008 52.3872 67.8432 52.3968C64.0896 52.8096 60.4896 53.0976 58.128 53.2704C56.2368 53.4048 54.7392 53.4912 53.808 53.5392C53.3952 53.5584 53.0208 53.7216 52.7232 53.9904C52.4736 53.28 51.792 52.7904 50.9952 52.8096C49.5936 52.848 48.0768 52.8864 46.5888 52.9152C45.7536 52.9344 44.9376 52.9536 44.1504 52.9728C41.904 53.0208 39.9552 53.0688 38.8896 53.088C38.112 53.1072 37.4496 53.5488 37.1136 54.2016C36.8256 53.9904 36.4896 53.856 36.1152 53.8176C35.3856 53.7408 34.2144 53.6064 32.7936 53.4336C32.6976 53.424 32.592 53.4144 32.4864 53.4144C31.536 53.4336 30.7296 54.1056 30.5184 55.0464C30.3744 55.7088 30.1824 56.304 29.9424 56.8224C29.8752 56.2752 29.8656 55.6512 29.9136 54.9792C29.9904 53.9136 29.232 52.9536 28.1856 52.7904C26.8896 52.5888 25.6512 52.3776 24.5184 52.1664C24.3744 52.1376 24.24 52.128 24.096 52.128C23.1936 52.1472 22.4256 52.7424 22.176 53.616C21.6672 55.392 20.9568 59.8176 25.3056 62.7456L24.816 66.3744C24.6816 67.3344 25.3344 68.2272 26.2944 68.4C27.1392 68.5536 28.5312 68.7264 30.3648 68.6784C30.5952 68.6688 30.8352 68.6688 31.0752 68.6496C31.9488 68.6016 32.6592 67.9488 32.7744 67.0848L33.2736 63.3408C34.0608 63.0624 35.3664 62.4096 36.3936 60.96C36.3168 63.2448 36.3648 65.0304 36.4128 65.9616C36.4608 67.0272 37.3344 67.8816 38.4 67.9104C40.1184 67.9488 42.1056 67.9488 44.2848 67.9008H44.4384C45.3696 67.8816 46.3296 67.8528 47.4048 67.8048C49.2768 67.728 50.8128 67.6416 51.7824 67.584C52.7616 67.5264 53.5104 66.6816 53.4624 65.6928C53.4048 64.7616 53.3472 63.7248 53.2896 62.6592C53.232 61.6896 52.4352 60.9504 51.456 60.9696C50.9472 60.9792 50.4288 60.9984 49.92 61.008C49.2 61.0272 48.4992 61.0368 47.8272 61.056C47.9232 60.8256 47.9712 60.5664 47.952 60.3168C47.9328 59.8944 47.904 59.472 47.8848 59.0592C47.8752 58.7904 47.7984 58.5408 47.6736 58.3296C47.9808 58.32 48.3072 58.32 48.6432 58.3104C49.5456 58.2912 50.4096 58.2624 51.216 58.224C51.6384 58.2048 52.0224 58.0416 52.3296 57.7728C52.4544 58.656 53.232 59.3184 54.144 59.2992C54.912 59.2704 56.0832 59.232 57.5136 59.1648C57.7152 61.632 57.9072 63.8112 58.08 65.6544C58.176 66.6624 59.0496 67.44 60.0576 67.4112C60.0864 67.4112 60.1152 67.4112 60.1344 67.4112C61.3056 67.3344 62.9376 67.2288 64.4928 67.1328C65.0304 67.104 65.5392 66.8448 65.8752 66.4224C66.2208 66.0096 66.3744 65.4624 66.2976 64.9344C66 62.688 65.7216 60.3552 65.5296 58.6176C66.5952 58.5216 67.5936 58.416 68.5152 58.3104C68.7072 58.2912 68.8992 58.2336 69.072 58.1472C69.4656 60.7296 69.9936 63.8496 70.5984 66.72C70.8096 67.6992 71.6832 68.4 72.6912 68.3712C72.7584 68.3712 72.8352 68.3616 72.9024 68.352C73.9872 68.2176 75.312 68.0544 76.7328 67.8816C77.3088 67.8144 77.8368 67.4976 78.1728 67.0272C78.5472 66.5568 78.672 65.9616 78.5568 65.3856Z" fill="url(#paint1_linear_115_839)"/>
<path d="M90.6048 51.2736C91.2192 43.3152 91.7472 36.0576 91.9296 33.6C91.968 33.0912 91.6128 32.64 91.1136 32.5632C89.3856 32.2848 87.6768 32.1504 86.256 32.0928L85.3248 30.6528C85.3248 30.6528 83.664 30.7872 82.3872 32.4384C82.3776 32.448 82.368 32.4576 82.368 32.4576C82.3488 32.4864 82.3296 32.5152 82.3008 32.544L82.2912 32.5536C82.2912 32.5536 82.2912 32.5536 82.2912 32.5632C81.1104 34.1376 79.92 35.8464 78.7776 37.5744C78.8256 37.44 78.8736 37.3056 78.9216 37.152C79.008 36.8352 78.9984 36.5856 78.9312 36.384C79.1424 35.4816 79.3824 34.4064 79.632 33.1392C79.7472 32.5632 79.3248 32.0256 78.7392 31.9872C75.7632 31.8336 67.1616 31.4016 58.4352 31.0944L58.224 29.5296C58.224 29.5296 57.5616 29.7216 57.0144 30.4608C56.9664 30.4416 56.9184 30.4128 56.8608 30.3936C56.6112 29.1264 55.9104 28.4544 55.9104 28.4544L54.2112 29.5872C54.2112 29.5872 54.3648 29.8272 54.6048 30.1536C52.3104 29.9712 48.864 29.7888 44.6592 29.8944C41.8848 29.952 38.7936 30.1344 35.4816 30.5088C34.5696 30.6144 33.9168 31.4496 34.032 32.3616C34.3296 34.6272 34.992 38.9568 36.1344 43.7472C36.0192 43.824 35.9808 43.9872 36.048 44.256C36.1056 44.4576 36.1632 44.6592 36.2208 44.8512C34.3776 39.9552 32.6976 35.136 31.968 33.0048C31.9488 32.9568 31.9296 32.9088 31.9008 32.8608C31.0368 30.7488 28.9344 30.144 28.9344 30.144L28.3488 31.9776C25.9008 32.1408 23.9712 32.4192 22.8096 32.6208C22.0896 32.7456 21.5328 33.3312 21.4464 34.0608C21.1776 36.288 20.9472 38.928 20.8128 40.464C20.7744 40.896 20.2272 41.04 19.9776 40.6848C17.712 37.4016 15.024 33.696 13.8528 32.0928C12.1248 29.7024 10.9536 29.5968 10.9536 29.5968L9.9648 31.44C9.9648 31.44 10.0032 31.4592 10.0704 31.4976C7.7952 31.7184 6.1056 32.0448 4.9632 32.3328C3.936 32.6208 3.3312 33.696 3.6384 34.7136C5.712 41.5392 7.5456 47.5584 8.7264 51.4272C8.1216 51.8112 7.68 52.2912 7.824 52.8192C8.1984 54.2592 10.2912 55.2768 10.2912 55.2768C10.656 55.4976 11.1264 55.5648 11.568 55.4016C14.8032 54.2016 16.9536 53.4912 18.2112 53.0976C18.9888 52.8576 19.4112 52.032 19.1808 51.264C18.8832 50.2944 18.5376 49.2192 18.3168 48.5088C18.2496 48.2976 18.5088 48.1344 18.672 48.2784C19.6992 49.2096 21.024 50.4288 21.7728 51.12C22.1664 51.4848 22.6848 51.6768 23.2128 51.648C23.7312 51.6192 24.2016 51.552 24.6048 51.4752C25.4496 51.3024 26.0832 50.6016 26.1792 49.7472C26.3232 48.4992 26.4864 47.0784 26.592 46.1568C26.6208 45.8976 26.976 45.8496 27.0816 46.0896C27.216 46.4064 27.3504 46.7232 27.4944 47.0304C27.0528 47.28 26.7744 47.6256 27.0144 48.1152C27.5424 49.1328 28.8672 50.1024 29.3568 50.4384C29.3952 50.4672 29.4336 50.496 29.472 50.5152C29.5104 50.544 29.5392 50.5632 29.5392 50.5632C29.8368 50.7264 30.1728 50.8032 30.528 50.7552C32.7456 50.448 34.7424 50.1216 36.1152 49.8816C37.104 49.7088 37.6896 48.672 37.3248 47.7408C37.248 47.5488 37.1712 47.3472 37.0944 47.1552C37.104 47.1648 37.1136 47.184 37.1232 47.1936V47.2032C37.4976 47.7696 38.1504 48.1152 38.8608 48.0576C40.5216 47.9328 43.3728 47.7312 46.7232 47.5776C49.5456 47.4528 52.7136 47.3568 55.8144 47.376C56.2752 47.376 56.6592 47.0304 56.688 46.5696C56.7264 46.032 56.784 45.2448 56.8512 44.2944C56.8608 44.2272 56.8608 44.1504 56.8704 44.0736C56.8704 44.016 56.88 43.968 56.88 43.9104C56.88 43.8432 56.88 43.7856 56.8704 43.728C56.8416 41.7408 55.7856 40.8384 55.7856 40.8384L54.4896 42.7488L54.6624 42.9504C53.28 42.9312 51.8784 42.9216 50.592 42.9312C48.864 42.9408 47.3376 42.96 46.32 42.9792C46.0224 42.9888 45.7728 42.768 45.7248 42.48C45.6864 42.2592 45.6576 42.0384 45.6288 41.808C45.5808 41.4528 45.8496 41.136 46.2048 41.136C47.0784 41.1264 48.336 41.1168 49.584 41.1072C50.0736 41.1072 50.4672 40.6944 50.448 40.2048C50.4288 39.6864 50.4096 39.1776 50.3904 38.6784C50.3904 38.6688 50.3904 38.6496 50.3904 38.64C50.3328 37.4112 49.8912 36.5376 49.6128 36.1056C49.8528 36.1056 50.0928 36.1056 50.3424 36.1056C52.1088 36.096 54.0768 36.1152 56.0448 36.1728C56.0256 36.4896 56.0064 36.7968 55.9872 37.1136C55.9584 37.7088 56.4096 38.2176 57.0048 38.2656C57.984 38.3328 59.5968 38.448 61.6512 38.592C62.16 38.6304 62.544 39.072 62.496 39.5808C62.2752 42.24 61.8912 46.9632 61.6416 50.0736C61.6032 50.5248 61.9104 50.928 62.3616 51.0144C63.4272 51.216 65.4912 51.5424 68.112 51.6288C68.2656 51.6384 68.4192 51.6 68.5536 51.5232C68.5536 51.5232 68.5632 51.5232 68.5632 51.5136C68.5728 51.5136 68.5824 51.504 68.592 51.4944C68.8224 51.36 70.1376 50.5344 70.3776 49.1808C70.4928 48.5472 70.0416 48.2976 69.4944 48.2304C69.936 45.792 70.5504 42.5088 71.1168 40.0128C71.2128 39.5712 71.616 39.2736 72.0672 39.3024C73.7568 39.4176 75.5136 39.5424 77.2896 39.6672C77.3472 39.6672 77.4048 39.6672 77.4528 39.6672C74.9376 43.584 72.8064 47.2608 71.7792 49.0656C71.5296 49.5072 71.7696 50.064 72.2688 50.1792C73.3536 50.4288 74.9664 50.832 77.1456 51.4464C77.2416 51.4752 77.3376 51.4752 77.4336 51.4656C77.4336 51.4656 79.3824 51.5136 80.5056 49.5264C81.072 48.528 80.7744 47.8944 80.3328 47.5104C80.5152 47.4528 80.7072 47.4432 80.8992 47.5008C81.456 47.6736 82.1184 47.856 82.8672 48.048C83.3376 48.1728 83.6544 48.624 83.5872 49.1136C83.4432 50.1888 83.3088 51.3024 83.184 52.4064C83.1264 52.8864 83.424 53.3472 83.8848 53.4912C85.4592 54 87.1776 54.576 89.04 55.2192C89.232 55.2864 89.424 55.2864 89.5968 55.248C89.5968 55.248 92.6304 54.8064 92.7936 53.0688C92.8416 52.1568 91.7088 51.6 90.6048 51.2736ZM48.4128 37.824C47.3376 37.8336 46.3584 37.8432 45.6672 37.8528C45.36 37.8528 45.1008 37.6224 45.072 37.3152C45.0528 37.1424 45.0432 36.9696 45.024 36.7968C44.9952 36.4608 45.2544 36.1632 45.6 36.1536C46.512 36.1248 47.76 36.096 49.2 36.0864L48.4128 37.824ZM84.4608 42.8352C84.432 43.0368 84.24 43.1616 84.0384 43.1232L83.1744 42.9312C82.944 42.8832 82.8288 42.6144 82.9536 42.4128L84.72 39.4272C84.8064 39.2928 85.0176 39.3696 84.9888 39.5232L84.4608 42.8352Z" fill="url(#paint2_linear_115_839)"/>
<path d="M36.0096 54.8544C35.2608 54.7776 34.0896 54.6432 32.6688 54.4704C32.1504 54.4032 31.6704 54.7488 31.5552 55.2672C31.3152 56.3808 30.9696 57.216 30.6336 57.8016C30.24 58.5024 29.184 58.3296 29.0112 57.5424C28.8192 56.64 28.8192 55.6608 28.8768 54.8928C28.9152 54.3648 28.5504 53.904 28.032 53.8272C26.8224 53.6352 25.5648 53.4336 24.3264 53.1936C23.8176 53.0976 23.328 53.4048 23.184 53.904C22.6944 55.6032 22.1568 59.3952 25.9584 61.92C26.2464 62.112 26.4096 62.448 26.3616 62.7936C26.2368 63.7152 25.9968 65.5296 25.8528 66.5184C25.7952 66.9216 26.0736 67.296 26.4768 67.3728C27.3312 67.5264 28.9056 67.7184 31.0176 67.6128C31.3824 67.5936 31.68 67.3152 31.728 66.9504L32.2368 63.1104C32.2848 62.7744 32.5152 62.4864 32.8416 62.3808C33.9936 61.9968 36.672 60.6048 36.8928 55.9008C36.9216 55.3728 36.528 54.912 36.0096 54.8544Z" fill="white"/>
<path d="M74.0928 52.6368C72.8928 52.8288 71.6352 53.0016 70.3776 53.1552C69.8784 53.2224 69.5232 53.6736 69.5904 54.1728C69.9456 56.8032 70.704 61.968 71.6544 66.4992C71.7696 67.0272 72.2592 67.3824 72.7968 67.3152C73.8912 67.1808 75.2064 67.0176 76.6368 66.8448C77.2416 66.768 77.6544 66.2016 77.5296 65.6064C76.5312 60.8448 75.6096 55.9776 75.12 53.3664C75.024 52.8768 74.5728 52.56 74.0928 52.6368Z" fill="white"/>
<path d="M68.6592 54C68.6208 53.6544 68.304 53.4048 67.9584 53.4432C64.4064 53.8368 60.912 54.1248 58.2048 54.3168C56.2656 54.4512 54.7296 54.5472 53.8752 54.5952C53.4624 54.6144 53.1552 54.9696 53.184 55.3824C53.232 56.0256 53.2992 56.7744 53.3664 57.5904C53.4048 57.9744 53.7312 58.272 54.1152 58.2624C54.9024 58.2336 56.304 58.1856 58.0608 58.0992C58.3008 58.0896 58.5024 58.2624 58.5216 58.5024C58.6944 60.6528 58.9152 63.2352 59.136 65.568C59.184 66.048 59.6064 66.4032 60.0864 66.3744C61.2576 66.2976 62.8896 66.192 64.4448 66.096C64.9632 66.0672 65.3472 65.5968 65.28 65.0784C64.9632 62.6688 64.656 60.1056 64.4352 58.1184C64.4064 57.8688 64.5888 57.6576 64.8288 57.6288C66.0288 57.5232 67.2288 57.408 68.4096 57.2736C68.7648 57.2352 69.0144 56.9088 68.9664 56.5536C68.8512 55.5264 68.7456 54.6528 68.6592 54Z" fill="white"/>
<path d="M52.2432 62.7264C52.224 62.3232 51.888 62.016 51.4848 62.0256C49.9392 62.064 48.3456 62.1024 47.0112 62.1312C46.0896 62.1504 45.2928 62.1696 44.7072 62.1792C44.4672 62.1888 44.2752 61.9968 44.2656 61.7568L44.256 61.4976C44.2464 61.2576 44.4384 61.056 44.6784 61.056C45.1296 61.0464 45.696 61.0368 46.3008 61.0272C46.6464 61.0176 46.9152 60.7296 46.896 60.384C46.8672 59.9616 46.848 59.5392 46.8288 59.1264C46.8096 58.8 46.5312 58.5408 46.2048 58.5408L44.64 58.5792C44.4 58.5888 44.1984 58.3968 44.1984 58.1568C44.1984 58.0128 44.1984 57.8784 44.1888 57.7344C44.1888 57.4944 44.3712 57.3024 44.6112 57.312C45.0528 57.312 45.8112 57.312 46.7424 57.3024C47.9808 57.2928 49.5456 57.2544 51.1584 57.1872C51.5712 57.168 51.8976 56.8128 51.8688 56.4C51.8304 55.6416 51.792 54.9984 51.7632 54.5568C51.744 54.1632 51.408 53.856 51.0144 53.8656C49.6128 53.904 48.096 53.9424 46.608 53.9712C45.7728 53.9904 44.9568 54.0096 44.1696 54.0288C41.9232 54.0768 39.9648 54.1248 38.9088 54.144C38.4192 54.1536 38.0064 54.5184 37.9392 55.008C37.2864 59.8848 37.3728 64.1184 37.4592 65.9232C37.488 66.4416 37.9104 66.8544 38.4288 66.8736C40.3872 66.9216 42.4704 66.9024 44.4192 66.864C45.456 66.8448 46.4448 66.8064 47.3664 66.768C49.2768 66.6912 50.8512 66.6048 51.7152 66.5472C52.1184 66.5184 52.4256 66.1728 52.4064 65.7696C52.368 64.8288 52.3104 63.792 52.2432 62.7264Z" fill="white"/>
<path d="M7.7664 52.656C6.816 49.5552 4.5024 41.9424 1.7568 32.9184C1.4496 31.9008 2.0544 30.8256 3.0816 30.5664C4.5696 30.192 6.9696 29.7504 10.3776 29.568C11.0016 29.5296 11.5968 29.8176 11.9712 30.3264C13.1328 31.9296 15.8208 35.6352 18.096 38.9184C18.3456 39.2736 18.8928 39.12 18.9312 38.6976C19.056 37.1616 19.296 34.5312 19.5648 32.2944C19.6512 31.5648 20.208 30.9792 20.928 30.8544C22.3776 30.5952 25.056 30.2112 28.4544 30.1152C29.184 30.096 29.8368 30.5472 30.0768 31.2288C30.9504 33.7824 33.1776 40.1664 35.424 45.936C35.7888 46.8672 35.2032 47.904 34.2144 48.0768C32.8416 48.3168 30.8448 48.6432 28.6272 48.9504C27.9648 49.0368 27.3216 48.7104 27.0048 48.1152C26.5248 47.2224 25.8144 45.8112 25.1808 44.2944C25.0752 44.0544 24.72 44.1024 24.6912 44.3616C24.5856 45.2832 24.4224 46.704 24.2784 47.952C24.1824 48.8064 23.5488 49.5072 22.704 49.68C22.3008 49.7568 21.8304 49.824 21.312 49.8528C20.784 49.8816 20.2656 49.6896 19.872 49.3248C19.1232 48.6336 17.7984 47.4144 16.7712 46.4832C16.608 46.3296 16.3488 46.5024 16.416 46.7136C16.6464 47.4144 16.9824 48.4992 17.28 49.4688C17.52 50.2464 17.088 51.0624 16.3104 51.3024C15.0528 51.696 12.9024 52.4064 9.6672 53.6064C8.88 53.8944 8.0064 53.4624 7.7664 52.656Z" fill="url(#paint3_linear_115_839)"/>
<path d="M56.6112 32.6688C56.688 31.4784 56.7552 30.3168 56.8224 29.2128C56.8608 28.5888 56.4 28.0416 55.776 27.9744C53.8464 27.7632 49.5264 27.3888 43.8048 27.5232C41.0304 27.5808 37.9392 27.7632 34.6272 28.1376C33.7152 28.2432 33.0624 29.0784 33.1776 29.9904C33.5328 32.7072 34.4064 38.3904 36.0192 44.256C36.2592 45.1296 37.0944 45.7152 37.9968 45.648C39.6576 45.5232 42.5088 45.3216 45.8592 45.168C48.6816 45.0432 51.8496 44.9472 54.9504 44.9664C55.4112 44.9664 55.7952 44.6208 55.824 44.16C55.8624 43.5456 55.9296 42.624 56.0064 41.5008C56.0448 41.0016 55.6512 40.5792 55.1616 40.5696C53.3472 40.5216 51.4368 40.512 49.7184 40.5216C47.9904 40.5312 46.464 40.5504 45.4464 40.5696C45.1488 40.5792 44.8992 40.3584 44.8512 40.0704C44.8128 39.8496 44.784 39.6288 44.7552 39.3984C44.7072 39.0432 44.976 38.7264 45.3312 38.7264C46.2048 38.7168 47.4624 38.7072 48.7104 38.6976C49.2 38.6976 49.5936 38.2848 49.5744 37.7952C49.5552 37.2768 49.536 36.768 49.5168 36.2688C49.5072 35.7984 49.1232 35.424 48.6528 35.4336C47.1648 35.4336 45.7344 35.4528 44.8128 35.472C44.5056 35.472 44.2464 35.2416 44.2176 34.9344C44.1984 34.7616 44.1888 34.5888 44.1696 34.416C44.1408 34.08 44.4 33.7824 44.7456 33.7728C45.8784 33.744 47.5488 33.7056 49.4688 33.696C51.2928 33.6864 53.3472 33.7056 55.3824 33.7728C56.0352 33.792 56.5728 33.3024 56.6112 32.6688Z" fill="url(#paint4_linear_115_839)"/>
<path d="M80.0736 30.3072C76.9824 30.144 67.8528 29.6832 58.8096 29.3856C58.224 29.3664 57.7344 29.808 57.6768 30.384C57.5712 31.5552 57.408 33.5424 57.312 35.3952C57.2832 35.9904 57.7344 36.4992 58.3296 36.5472C59.3088 36.6144 60.9216 36.7296 62.976 36.8736C63.4848 36.912 63.8688 37.3536 63.8208 37.8624C63.6 40.5216 63.216 45.2448 62.9664 48.3552C62.928 48.8064 63.2352 49.2096 63.6864 49.296C64.752 49.4976 66.816 49.824 69.4368 49.9104C69.8784 49.9296 70.272 49.6128 70.3488 49.1712C70.6848 47.2224 71.616 41.9328 72.4416 38.304C72.5376 37.8624 72.9408 37.5648 73.392 37.5936C75.0816 37.7088 76.8384 37.8336 78.6144 37.9584C79.0656 37.9872 79.488 37.6992 79.6128 37.2672C79.8912 36.288 80.4096 34.3488 80.976 31.4592C81.0816 30.8736 80.6592 30.336 80.0736 30.3072Z" fill="url(#paint5_linear_115_839)"/>
<path d="M80.4096 49.6128C80.8992 48.7392 81.504 47.664 82.1856 46.4736C82.4064 46.0896 82.8672 45.9072 83.2896 46.032C83.8464 46.2048 84.5088 46.3872 85.2576 46.5792C85.728 46.704 86.0448 47.1552 85.9776 47.6448C85.8336 48.72 85.6992 49.8336 85.5744 50.9376C85.5168 51.4176 85.8144 51.8784 86.2752 52.0224C87.8496 52.5312 89.568 53.1072 91.4304 53.7504C92.064 53.9712 92.7456 53.5296 92.7936 52.8576C93.504 43.7568 94.1568 34.896 94.3584 32.1408C94.3968 31.632 94.0416 31.1808 93.5424 31.104C90.0864 30.5376 86.7264 30.5856 85.5264 30.624C85.2384 30.6336 84.96 30.768 84.7872 31.008C80.4192 36.8064 75.84 44.6592 74.1696 47.5872C73.92 48.0288 74.16 48.5856 74.6592 48.7008C75.744 48.9504 77.3568 49.3536 79.536 49.968C79.872 50.0736 80.2368 49.92 80.4096 49.6128ZM85.3728 40.9632L87.1392 37.9776C87.2256 37.8432 87.4368 37.92 87.408 38.0736L86.8896 41.376C86.8608 41.5776 86.6688 41.7024 86.4672 41.664L85.6032 41.472C85.3632 41.4336 85.248 41.1648 85.3728 40.9632Z" fill="url(#paint6_linear_115_839)"/>
<path d="M87.9072 39.5328L87.6 41.5008C87.5136 42.0288 87.072 42.4128 86.5344 42.4128C86.4576 42.4128 86.3808 42.4032 86.2944 42.384L85.4304 42.192C85.0944 42.1152 84.816 41.8848 84.6816 41.568C84.5472 41.2512 84.5664 40.8864 84.7392 40.5984L85.6032 39.1296C83.8176 38.8896 81.9648 38.832 80.1312 39.072C77.7984 42.7392 75.8112 46.1472 74.7936 47.9424C74.7936 47.952 74.784 47.9616 74.7936 47.9712C74.8032 47.9904 74.8128 47.9904 74.8224 47.9904C76.2624 48.3264 77.9136 48.7584 79.7376 49.2672C79.7376 49.2672 79.7568 49.2672 79.7664 49.248C80.256 48.3744 80.8608 47.2992 81.5424 46.0992C81.84 45.5808 82.3968 45.2544 83.0016 45.2544C83.1648 45.2544 83.328 45.2832 83.4912 45.3312C84.1152 45.5232 84.7584 45.7056 85.4208 45.8688C86.256 46.08 86.7936 46.8768 86.688 47.7312C86.544 48.8544 86.4096 49.9584 86.2848 51.0144C86.2656 51.1584 86.352 51.2832 86.4864 51.3312C88.1472 51.8688 89.8848 52.4544 91.6512 53.0688C91.68 53.0784 91.7184 53.088 91.7472 53.088C91.8816 53.088 92.0352 52.9824 92.0448 52.8096C92.3712 48.672 92.6784 44.5536 92.9472 41.0592C91.5072 40.5024 89.7792 39.936 87.9072 39.5328Z" fill="url(#paint7_linear_115_839)"/>
<path d="M64.0992 43.4496C63.9552 45.1968 63.8112 46.9728 63.696 48.3936C63.6864 48.48 63.744 48.5472 63.8208 48.5664C64.8096 48.7584 66.864 49.0848 69.456 49.1712H69.4656C69.5424 49.1712 69.6096 49.1136 69.6288 49.0368C69.84 47.7984 70.2624 45.4368 70.7328 42.96C68.2752 43.872 66.0672 43.9008 64.0992 43.4496Z" fill="url(#paint8_linear_115_839)"/>
<path d="M55.1616 41.2992C53.8272 41.2704 52.3104 41.2512 50.6592 41.2512C50.352 41.2512 50.0448 41.2512 49.7472 41.2512C47.8176 41.2608 46.2528 41.28 45.4848 41.2992C45.4848 41.2992 45.4656 41.2992 45.456 41.2992C44.8032 41.2992 44.256 40.8288 44.1504 40.1856C44.112 39.9648 44.0832 39.7344 44.0448 39.5136C43.9872 39.1392 44.1024 38.7552 44.3424 38.4672C44.592 38.1792 44.9472 38.0064 45.3312 38.0064C46.2048 37.9968 47.4624 37.9872 48.72 37.9776C48.768 37.9776 48.7968 37.9584 48.816 37.9392C48.8352 37.92 48.8544 37.8816 48.8544 37.8336C48.8352 37.3152 48.816 36.7968 48.7968 36.2976C48.3072 36.2496 47.808 36.2016 47.2896 36.1728C46.1664 36.1824 45.2448 36.192 44.8128 36.2016C44.6304 36.2016 44.4576 36.1632 44.2944 36.096C41.2224 36.1152 37.9488 36.4512 35.0976 37.152C35.52 39.3024 36.0576 41.6736 36.72 44.0832C36.8544 44.592 37.3248 44.9472 37.8528 44.9472C37.8816 44.9472 37.9104 44.9472 37.9488 44.9472C39.7248 44.8128 42.5376 44.6112 45.8304 44.4672C48.8064 44.3328 51.6096 44.2656 54.1536 44.2656C54.4224 44.2656 54.6912 44.2656 54.96 44.2656C55.0368 44.2656 55.104 44.208 55.104 44.1312C55.1424 43.5168 55.2096 42.5952 55.2864 41.472C55.2864 41.4144 55.2672 41.3856 55.248 41.3568C55.248 41.328 55.2096 41.2992 55.1616 41.2992Z" fill="url(#paint9_linear_115_839)"/>
<path d="M31.7664 38.2464C30.9984 38.5824 30.2976 38.9472 29.6928 39.3696C23.5392 43.584 20.976 42.2496 11.0592 38.832C7.6128 37.6416 5.6256 38.1984 4.4928 39.4176C6.3072 45.3888 7.7664 50.1504 8.4672 52.4448C8.5632 52.7616 8.8512 52.9728 9.1776 52.9728C9.264 52.9728 9.3504 52.9536 9.4368 52.9248C12.7008 51.7152 14.8704 51.0048 16.1184 50.6112C16.512 50.4864 16.7232 50.0736 16.608 49.68C16.32 48.7296 15.9744 47.664 15.744 46.9344C15.648 46.6464 15.696 46.3392 15.8784 46.0896C16.0608 45.8496 16.3392 45.696 16.6464 45.696C16.8768 45.696 17.1072 45.7824 17.28 45.9456C18.3264 46.896 19.6704 48.1344 20.3808 48.7872C20.6208 49.008 20.9184 49.1232 21.2256 49.1232C21.2448 49.1232 21.264 49.1232 21.2832 49.1232C21.7152 49.104 22.1472 49.0464 22.5696 48.96C23.0976 48.8544 23.5008 48.4128 23.568 47.8656C23.712 46.6176 23.8752 45.1968 23.9808 44.2752C24.0384 43.776 24.4608 43.4016 24.96 43.4016C25.3536 43.4016 25.7088 43.6416 25.8624 44.0064C26.4864 45.4848 27.1872 46.8672 27.6576 47.7696C27.8112 48.0576 28.0992 48.2304 28.416 48.2304C28.4544 48.2304 28.4928 48.2304 28.5312 48.2208C30.7776 47.9136 32.7936 47.5776 34.0896 47.3472C34.3488 47.2992 34.5696 47.1456 34.6944 46.9248C34.8192 46.6944 34.8384 46.4256 34.7424 46.1856C33.696 43.5264 32.6592 40.7328 31.7664 38.2464Z" fill="url(#paint10_linear_115_839)"/>
<path opacity="0.6" d="M70.6848 40.5888C70.896 41.1552 70.272 41.9136 69.2832 42.288C68.2944 42.6624 67.3248 42.5088 67.1136 41.952C66.9024 41.3856 67.5264 40.6272 68.5152 40.2528C69.4944 39.8784 70.464 40.032 70.6848 40.5888Z" fill="url(#paint11_linear_115_839)"/>
<path opacity="0.3" d="M69.888 39.216C69.7728 39.4656 69.3312 39.504 68.8992 39.312C68.4672 39.12 68.1984 38.7552 68.3136 38.5056C68.4288 38.256 68.8704 38.2176 69.3024 38.4096C69.7344 38.6112 69.9936 38.9664 69.888 39.216Z" fill="url(#paint12_linear_115_839)"/>
<path opacity="0.6" d="M11.1072 36.0288C10.896 36.7488 9.4848 36.9696 7.9392 36.528C6.3936 36.0864 5.3184 35.1456 5.52 34.4256C5.7312 33.7056 7.1424 33.4848 8.688 33.9264C10.2336 34.368 11.3184 35.3088 11.1072 36.0288Z" fill="url(#paint13_linear_115_839)"/>
<path d="M30.7104 43.4208C30.9024 43.6512 30.7296 44.1024 30.3264 44.4288C29.9232 44.7648 29.4528 44.8416 29.2608 44.6208C29.0688 44.3904 29.2416 43.9392 29.6448 43.6128C30.048 43.2768 30.5184 43.1904 30.7104 43.4208Z" fill="url(#paint14_linear_115_839)"/>
<path opacity="0.4" d="M53.3952 30.3168C53.232 30.7776 52.4448 30.9216 51.6384 30.6336C50.832 30.3456 50.304 29.7504 50.4576 29.2896C50.6208 28.8288 51.408 28.6848 52.2144 28.9728C53.0208 29.2608 53.5584 29.856 53.3952 30.3168Z" fill="url(#paint15_linear_115_839)"/>
<path d="M32.1504 45.5136C32.112 45.6768 31.8432 45.7536 31.5648 45.6864C31.2768 45.6192 31.0752 45.4272 31.1136 45.264C31.152 45.1008 31.4208 45.024 31.6992 45.0912C31.9968 45.1584 32.1984 45.3504 32.1504 45.5136Z" fill="url(#paint16_linear_115_839)"/>
<path d="M11.1072 29.6352C10.9344 29.568 10.7424 29.5296 10.56 29.5104C10.368 29.5008 10.1856 29.5104 10.0032 29.52C9.264 29.5488 8.5344 29.5872 7.7952 29.6448C6.3264 29.7696 4.8672 29.9712 3.4176 30.288C3.2352 30.3264 3.0624 30.3552 2.8608 30.4224C2.6688 30.4896 2.4864 30.576 2.3136 30.6912C1.9776 30.9216 1.7184 31.2672 1.5744 31.6416C1.4304 32.0256 1.392 32.448 1.4976 32.8512C1.5168 32.9568 1.5456 33.0432 1.5744 33.1296L1.6512 33.3984L1.8048 33.9264L3.072 38.1504C3.936 40.9632 4.8 43.7664 5.6928 46.5696L7.0464 50.7648L7.392 51.8112L7.5648 52.3296C7.6224 52.5024 7.6704 52.6752 7.7568 52.8576C7.92 53.2032 8.2176 53.4816 8.5728 53.616C8.928 53.7504 9.3216 53.7408 9.6672 53.6064C8.9664 53.856 8.1408 53.472 7.8816 52.8096C7.8144 52.6464 7.776 52.464 7.728 52.2912L7.584 51.7632L7.2864 50.688L6.0672 46.4544C5.2512 43.632 4.3968 40.8192 3.552 38.0064L2.256 33.792C2.1504 33.4464 2.0256 33.0816 1.9392 32.7552C1.9008 32.6016 1.8816 32.4384 1.8912 32.2752C1.9008 32.112 1.9296 31.9488 1.9872 31.7952C2.0928 31.488 2.304 31.2192 2.5632 31.0176C2.688 30.912 2.8416 30.8448 2.9952 30.7872C3.1392 30.7392 3.3408 30.6912 3.504 30.6528C4.9248 30.3072 6.3648 30.0672 7.824 29.8848C8.5536 29.7888 9.2832 29.712 10.0128 29.6544C10.1952 29.6448 10.3776 29.616 10.56 29.616C10.7424 29.616 10.9152 29.6544 11.088 29.7024C11.4336 29.808 11.7408 30.0288 11.9712 30.3168C11.76 30.0096 11.4624 29.7696 11.1072 29.6352Z" fill="white"/>
<path d="M29.0976 30.0864C28.8576 29.9808 28.5792 29.9424 28.3296 29.9424C28.08 29.9424 27.84 29.9424 27.5904 29.9424C26.6016 29.952 25.6128 30.0096 24.6336 30.096C23.6544 30.192 22.6752 30.3264 21.696 30.5184C21.456 30.5664 21.2064 30.6144 20.9664 30.672C20.7168 30.72 20.4576 30.8256 20.2368 30.9792C19.8048 31.2864 19.5456 31.7952 19.536 32.2848C19.6512 31.8048 19.9584 31.392 20.3616 31.1712C20.5632 31.056 20.7744 30.9984 21.0144 30.9792L21.744 30.8928C22.7136 30.7776 23.6928 30.672 24.6624 30.576C25.632 30.48 26.6112 30.3936 27.5904 30.3168L28.32 30.2592C28.56 30.2304 28.7808 30.24 29.0016 30.3072C29.4432 30.432 29.8368 30.768 30.0384 31.2096C29.952 30.7296 29.5872 30.2976 29.0976 30.0864Z" fill="white"/>
<path d="M22.5984 49.5072C22.1856 49.5648 21.7728 49.6128 21.3504 49.6224C20.9664 49.6416 20.592 49.5456 20.2752 49.3344C20.1984 49.2864 20.1216 49.2288 20.0448 49.1616L19.8048 48.9504L19.3248 48.5184C18.9984 48.24 18.6816 47.952 18.3552 47.6832C18.0288 47.4048 17.6928 47.136 17.3664 46.8672L16.8576 46.4736C16.8192 46.4448 16.7712 46.3968 16.704 46.3776C16.6368 46.3584 16.5696 46.368 16.512 46.3968C16.3968 46.4544 16.3584 46.5984 16.4064 46.6944C16.3776 46.5888 16.4544 46.4832 16.5408 46.464C16.5888 46.4544 16.6272 46.4544 16.6656 46.4736C16.704 46.4928 16.7232 46.5216 16.7616 46.5696L17.2032 47.04C17.5008 47.3472 17.7984 47.6544 18.096 47.9616C18.3936 48.2688 18.7104 48.5568 19.008 48.8544L19.4784 49.296L19.7184 49.5168C19.8048 49.5936 19.9008 49.6704 19.9968 49.7376C20.4 49.9968 20.8896 50.1216 21.36 50.0736C21.792 50.0352 22.2336 49.9776 22.656 49.872C23.1072 49.776 23.5296 49.5264 23.8176 49.1712C24.1056 48.816 24.2688 48.384 24.2592 47.952C24.0768 48.7968 23.376 49.4112 22.5984 49.5072Z" fill="white"/>
<path d="M33.5712 29.1168C33.7344 28.8096 34.0128 28.5696 34.3392 28.4544C34.5024 28.3968 34.6656 28.3776 34.8672 28.3584L35.4624 28.3008L36.6528 28.1856C39.8304 27.8688 43.0176 27.7344 46.2048 27.696C47.7984 27.6768 49.4016 27.6864 50.9952 27.744C52.5888 27.7824 54.1824 27.8688 55.7856 27.9936C54.2016 27.7632 52.608 27.6288 51.0144 27.5136C49.4208 27.408 47.8176 27.3504 46.2144 27.3312C43.008 27.2928 39.8112 27.4368 36.6144 27.7152L35.4144 27.84L34.8192 27.9072C34.6368 27.9264 34.3872 27.9552 34.176 28.0416C33.744 28.1952 33.3792 28.5216 33.1776 28.9248C33.072 29.1264 33.0048 29.3472 32.976 29.568C32.9472 29.7888 32.976 30.0384 33.0048 30.2208C33.2256 31.8048 33.4752 33.3888 33.7824 34.9632C34.08 36.5376 34.416 38.1024 34.7808 39.6576C35.1648 41.2128 35.568 42.7584 36.0384 44.2848C35.664 42.7296 35.3088 41.1744 35.0112 39.6C34.6944 38.0352 34.3968 36.4608 34.1472 34.8864C33.8976 33.312 33.648 31.7376 33.4464 30.1536C33.4176 29.9424 33.3984 29.7888 33.4272 29.616C33.4368 29.4336 33.4944 29.2608 33.5712 29.1168Z" fill="white"/>
<path d="M45.4752 35.6544C45.984 35.6928 46.4832 35.6928 46.992 35.6928C47.5008 35.6832 48 35.664 48.5088 35.6256L48.6912 35.6064C48.7392 35.6064 48.7968 35.6064 48.8448 35.6064C48.9504 35.616 49.0464 35.6544 49.1424 35.712C49.3344 35.8176 49.488 36.0192 49.5456 36.2784C49.5936 36.0192 49.4976 35.7312 49.2864 35.5296C49.1808 35.4336 49.056 35.3568 48.912 35.3088C48.8448 35.28 48.768 35.2704 48.6912 35.2704L48.4992 35.2608C47.9904 35.2224 47.4912 35.2224 46.9824 35.2224C46.4736 35.232 45.9744 35.2416 45.4656 35.2896C45.3408 35.2992 45.216 35.3088 45.0912 35.3184C44.9664 35.328 44.832 35.3568 44.736 35.3472C44.5344 35.3472 44.3136 35.184 44.2368 34.944C44.1984 35.2032 44.3904 35.5008 44.688 35.5872C44.8512 35.6256 44.9664 35.6256 45.0912 35.6352C45.2256 35.6352 45.3504 35.6448 45.4752 35.6544Z" fill="white"/>
<path d="M55.6704 40.5216C55.5168 40.4256 55.3152 40.3776 55.1424 40.3776L54.6816 40.368L53.7696 40.3392L51.936 40.3104H50.1024C49.488 40.32 48.8832 40.3392 48.2688 40.368C47.6544 40.3872 47.0496 40.4256 46.4352 40.4544L45.5232 40.512C45.2448 40.5696 44.9376 40.3872 44.8608 40.08C44.8704 40.2336 44.9472 40.3872 45.072 40.4928C45.1872 40.5984 45.3696 40.656 45.5232 40.6464L46.4352 40.6848C47.0496 40.704 47.6544 40.7232 48.2688 40.7328L51.9264 40.7904H53.7504L54.6624 40.7808L55.1232 40.7712C55.2576 40.7616 55.3632 40.7904 55.4784 40.848C55.6992 40.9536 55.8432 41.184 55.8624 41.4336C55.8624 41.712 55.8432 42.0384 55.8432 42.336C55.8336 42.9504 55.824 43.5552 55.8336 44.1696C55.9296 43.5648 56.0064 42.96 56.0832 42.3552C56.1216 42.048 56.16 41.76 56.1792 41.4336C56.1984 41.0688 55.9968 40.704 55.6704 40.5216Z" fill="white"/>
<path d="M80.0544 30.1152C77.5104 29.9616 74.9664 29.8464 72.4224 29.7312C69.8784 29.6256 67.3344 29.5296 64.7904 29.4528C63.5136 29.4144 62.2464 29.3856 60.9696 29.3568L59.0592 29.328C58.9056 29.328 58.7424 29.3088 58.5696 29.3472C58.4064 29.3856 58.2528 29.4528 58.1184 29.5488C57.8496 29.7504 57.696 30.0576 57.6768 30.384C57.7152 30.0672 57.8976 29.7792 58.1568 29.616C58.2816 29.5296 58.4352 29.472 58.5792 29.4528C58.7232 29.424 58.8864 29.4528 59.04 29.4624L60.9504 29.5968C62.2176 29.6832 63.4944 29.76 64.7616 29.8368C67.3056 29.9808 69.8496 30.1056 72.3936 30.2208C74.9376 30.3264 77.4816 30.4224 80.0256 30.4992C80.2944 30.4992 80.5344 30.6432 80.6784 30.864C80.7456 30.9792 80.7936 31.104 80.8032 31.2288C80.8128 31.296 80.8032 31.3632 80.7936 31.4304L80.7552 31.6608C80.64 32.2848 80.5248 32.9088 80.4 33.5328C80.16 34.7808 79.8912 36.0288 79.5936 37.2672C79.9968 36.0576 80.3232 34.8192 80.6304 33.5904C80.784 32.9664 80.928 32.352 81.0624 31.728L81.1104 31.4976C81.1296 31.4112 81.1392 31.3152 81.1296 31.2192C81.12 31.0368 81.0624 30.8448 80.9664 30.6816C80.8032 30.3456 80.4288 30.1248 80.0544 30.1152Z" fill="white"/>
<path d="M94.4832 31.7088C94.4064 31.4784 94.2432 31.2672 94.0416 31.1328C93.9456 31.0656 93.8304 31.008 93.7152 30.9792C93.5904 30.9408 93.4848 30.9312 93.3888 30.9216C92.976 30.864 92.5632 30.8064 92.1504 30.768C91.3248 30.6816 90.4896 30.6144 89.6544 30.576C88.8192 30.5472 87.9936 30.5376 87.1584 30.5472C86.7456 30.5568 86.3232 30.5664 85.9104 30.5856L85.6032 30.6048C85.4976 30.6048 85.392 30.624 85.296 30.6528C85.0944 30.72 84.912 30.8448 84.7968 31.0176C84.9312 30.8544 85.1136 30.7392 85.3056 30.6912C85.5072 30.6432 85.7184 30.672 85.92 30.6624C86.3328 30.6624 86.7456 30.672 87.168 30.6816C87.9936 30.7008 88.8288 30.7488 89.6544 30.816C90.48 30.8736 91.3056 30.96 92.1216 31.0656C92.5344 31.1232 92.9376 31.1808 93.3504 31.248C93.456 31.2672 93.5616 31.2768 93.6288 31.3056C93.7056 31.3344 93.792 31.3728 93.8592 31.4208C93.9936 31.5168 94.0992 31.6608 94.1472 31.824C94.176 31.9008 94.1856 31.9872 94.1856 32.0736V32.1408L94.176 32.2176L94.1664 32.3712L94.1088 32.9952L94.0128 34.2336L93.8112 36.72L93.4176 41.6832C93.1872 44.9952 92.9376 48.3072 92.7264 51.6192L92.6496 52.8576C92.6304 53.2032 92.3808 53.5296 92.0352 53.6352C91.8624 53.6928 91.68 53.6832 91.5072 53.6352L90.912 53.4432L89.7216 53.0592L87.3408 52.32C86.9472 52.1952 86.5344 52.08 86.16 51.9456C85.7952 51.7824 85.5456 51.3696 85.584 50.9472C85.5168 51.36 85.7376 51.8112 86.1216 52.0128C86.5152 52.176 86.8992 52.3008 87.2928 52.4448L89.6352 53.2896L90.8064 53.7024L91.392 53.904C91.6128 53.9808 91.8624 53.9904 92.0928 53.9232C92.5536 53.808 92.9184 53.3664 92.9568 52.8864L93.0624 51.648C93.3504 48.336 93.6 45.024 93.8688 41.7216L94.224 36.7488L94.3968 34.2624L94.4832 33.024L94.5216 32.4L94.5312 32.2464L94.5408 32.1696V32.0736C94.5408 31.9488 94.5216 31.824 94.4832 31.7088Z" fill="white"/>
</g>
<defs>
<linearGradient id="paint0_linear_115_839" x1="-15.0922" y1="46.4875" x2="127.485" y2="50.5534" gradientUnits="userSpaceOnUse">
<stop stop-color="#B5E5FF"/>
<stop offset="0.2458" stop-color="#00A6F1"/>
<stop offset="0.6844" stop-color="#C2E9FF"/>
<stop offset="1" stop-color="#00A6F1"/>
</linearGradient>
<linearGradient id="paint1_linear_115_839" x1="49.5916" y1="34.618" x2="50.4031" y2="70.0881" gradientUnits="userSpaceOnUse">
<stop stop-color="#091434"/>
<stop offset="1" stop-color="#184093"/>
</linearGradient>
<linearGradient id="paint2_linear_115_839" x1="48.1605" y1="25.4456" x2="48.1605" y2="52.6331" gradientUnits="userSpaceOnUse">
<stop stop-color="#091434"/>
<stop offset="1" stop-color="#184093"/>
</linearGradient>
<linearGradient id="paint3_linear_115_839" x1="16.4451" y1="30.9007" x2="21.5737" y2="51.301" gradientUnits="userSpaceOnUse">
<stop stop-color="#B5E5FF"/>
<stop offset="1" stop-color="#00A6F1"/>
</linearGradient>
<linearGradient id="paint4_linear_115_839" x1="44.7978" y1="27.2365" x2="46.5073" y2="45.6994" gradientUnits="userSpaceOnUse">
<stop stop-color="#B5E5FF"/>
<stop offset="1" stop-color="#00A6F1"/>
</linearGradient>
<linearGradient id="paint5_linear_115_839" x1="69.3638" y1="30.6348" x2="66.7426" y2="50.1233" gradientUnits="userSpaceOnUse">
<stop stop-color="#B5E5FF"/>
<stop offset="1" stop-color="#00A6F1"/>
</linearGradient>
<linearGradient id="paint6_linear_115_839" x1="89.2652" y1="30.6725" x2="82.997" y2="51.8706" gradientUnits="userSpaceOnUse">
<stop stop-color="#B5E5FF"/>
<stop offset="1" stop-color="#00A6F1"/>
</linearGradient>
<linearGradient id="paint7_linear_115_839" x1="86.4816" y1="38.0961" x2="83.9173" y2="48.4387" gradientUnits="userSpaceOnUse">
<stop stop-color="white"/>
<stop offset="1" stop-color="white" stop-opacity="0"/>
</linearGradient>
<linearGradient id="paint8_linear_115_839" x1="67.5754" y1="41.95" x2="66.7206" y2="48.6171" gradientUnits="userSpaceOnUse">
<stop stop-color="white"/>
<stop offset="1" stop-color="white" stop-opacity="0"/>
</linearGradient>
<linearGradient id="paint9_linear_115_839" x1="44.7625" y1="34.3808" x2="45.6173" y2="43.7831" gradientUnits="userSpaceOnUse">
<stop stop-color="white"/>
<stop offset="1" stop-color="white" stop-opacity="0"/>
</linearGradient>
<linearGradient id="paint10_linear_115_839" x1="17.6092" y1="35.2001" x2="21.2847" y2="49.1327" gradientUnits="userSpaceOnUse">
<stop stop-color="white"/>
<stop offset="1" stop-color="white" stop-opacity="0"/>
</linearGradient>
<linearGradient id="paint11_linear_115_839" x1="68.2044" y1="40.3081" x2="69.4372" y2="42.0303" gradientUnits="userSpaceOnUse">
<stop stop-color="white"/>
<stop offset="1" stop-color="white" stop-opacity="0"/>
</linearGradient>
<linearGradient id="paint12_linear_115_839" x1="69.1851" y1="38.3342" x2="69.0269" y2="39.2813" gradientUnits="userSpaceOnUse">
<stop stop-color="white"/>
<stop offset="1" stop-color="white" stop-opacity="0"/>
</linearGradient>
<linearGradient id="paint13_linear_115_839" x1="8.35317" y1="33.6921" x2="8.29217" y2="36.4359" gradientUnits="userSpaceOnUse">
<stop stop-color="white"/>
<stop offset="1" stop-color="white" stop-opacity="0"/>
</linearGradient>
<linearGradient id="paint14_linear_115_839" x1="29.5119" y1="43.6874" x2="30.3568" y2="44.2913" gradientUnits="userSpaceOnUse">
<stop stop-color="white"/>
<stop offset="1" stop-color="white" stop-opacity="0"/>
</linearGradient>
<linearGradient id="paint15_linear_115_839" x1="51.9994" y1="28.8451" x2="51.8652" y2="30.5581" gradientUnits="userSpaceOnUse">
<stop stop-color="white"/>
<stop offset="1" stop-color="white" stop-opacity="0"/>
</linearGradient>
<linearGradient id="paint16_linear_115_839" x1="31.625" y1="45.0588" x2="31.6401" y2="45.6486" gradientUnits="userSpaceOnUse">
<stop stop-color="white"/>
<stop offset="1" stop-color="white" stop-opacity="0"/>
</linearGradient>
<clipPath id="clip0_115_839">
<rect width="96" height="96" fill="white"/>
</clipPath>
</defs>
</svg>
